 http://www.imdb.com/title/tt1491603/

A lonely hotel by a lonely road. Sarah is lost, looking for somewhere to sleep. She's come to the wrong place. A lonely hotel by a lonely road. Sarah is lost, Jenny is looking for her. She's come to the right place. The Bridgeburn Hotel.

Format : AVI
Format/Info : Audio Video Interleave
File size : 702 MiB
Duration : 1h 26mn
Overall bit rate : 1 128 Kbps
Writing application : VirtualDubMod 1.5.10.2 (build 2540/release)
Writing library : VirtualDubMod build 2540/release

Video
ID : 0
Format : MPEG-4 Visual
Format profile : Advanced Simple@L5
Format settings, BVOP : Yes
Format settings, QPel : No
Format settings, GMC : No warppoints
Format settings, Matrix : Default (H.263)
Codec ID : XVID
Codec ID/Hint : XviD
Duration : 1h 26mn
Bit rate : 948 Kbps
Width : 640 pixels
Height : 352 pixels
Display aspect ratio : 16:9
Frame rate : 25.000 fps
Color space : YUV
Chroma subsampling : 4:2:0
Bit depth : 8 bits
Scan type : Progressive
Bits/(Pixel*Frame) : 0.168
Stream size : 590 MiB (84%)
Writing library : XviD 1.2.1 (UTC 2008-12-04)

Audio
ID : 1
Format : MPEG Audio
Format version : Version 1
Format profile : Layer 3
Mode : Joint stereo
Mode extension : MS Stereo
Codec ID : 55
Codec ID/Hint : MP3
Duration : 1h 26mn
Bit rate mode : Variable
Bit rate : 160 Kbps
Channel(s) : 2 channels
Sampling rate : 48.0 KHz
Stream size : 104 MiB (15%)
Alignment : Aligned on interleaves
Interleave, duration : 24 ms (0.60 video frame)
Interleave, preload duration : 452 ms
Writing library : LAME3.90.
Encoding settings : -m j -V 4 -q 2 -lowpass 18 --abr 160